<svg width="100%" height="100%" viewBox="0 0 100 100" version="1.1"
  xmlns="http://www.w3.org/2000/svg" style="fill-rule:evenodd;clip-rule:evenodd;stroke-linejoin:round;stroke-miterlimit:2;">
<circle class="circle" cx="50" cy="50" r="50" stylee="fill:#f3d200;"/>

  <path d="M56.668,75.107c-0,-3.448 -2.8,-6.247 -6.248,-6.247c-3.448,-0 -6.248,2.799 -6.248,6.247l0,0.005c0,3.448 2.8,6.248 6.248,6.248c3.448,-0 6.248,-2.8 6.248,-6.248l-0,-0.005Z" style="fill:#fff;"/>
  <path d="M56.668,23.943c-0,-3.449 -2.8,-6.248 -6.248,-6.248c-3.448,-0 -6.248,2.799 -6.248,6.248l0,26.323c0,3.449 2.8,6.248 6.248,6.248c3.448,-0 6.248,-2.799 6.248,-6.248l-0,-26.323Z" style="fill:#fff;"/>
</svg>