<?xml version="1.0" encoding="UTF-8" standalone="no"?>
<!DOCTYPE svg PUBLIC "-//W3C//DTD SVG 1.1//EN" "http://www.w3.org/Graphics/SVG/1.1/DTD/svg11.dtd">
<svg width="100%" height="100%" viewBox="0 0 180 61" version="1.1" xmlns="http://www.w3.org/2000/svg" xmlns:xlink="http://www.w3.org/1999/xlink" xml:space="preserve" xmlns:serif="http://www.serif.com/" style="fill-rule:evenodd;clip-rule:evenodd;">
    <g transform="matrix(1,0,0,1,-70,-65)">
        <g transform="matrix(1,0,0,1,147,90)">
            <path d="M12.738,-6.316L16.102,-5.25C15.586,-3.375 14.729,-1.982 13.529,-1.072C12.33,-0.162 10.809,0.293 8.965,0.293C6.684,0.293 4.809,-0.486 3.34,-2.045C1.871,-3.604 1.137,-5.734 1.137,-8.438C1.137,-11.297 1.875,-13.518 3.352,-15.1C4.828,-16.682 6.77,-17.473 9.176,-17.473C11.277,-17.473 12.984,-16.852 14.297,-15.609C15.078,-14.875 15.664,-13.82 16.055,-12.445L12.621,-11.625C12.418,-12.516 11.994,-13.219 11.35,-13.734C10.705,-14.25 9.922,-14.508 9,-14.508C7.727,-14.508 6.693,-14.051 5.9,-13.137C5.107,-12.223 4.711,-10.742 4.711,-8.695C4.711,-6.523 5.102,-4.977 5.883,-4.055C6.664,-3.133 7.68,-2.672 8.93,-2.672C9.852,-2.672 10.645,-2.965 11.309,-3.551C11.973,-4.137 12.449,-5.059 12.738,-6.316Z" style="fill:white;fill-rule:nonzero;"/>
            <path d="M19.055,-14.133L19.055,-17.18L22.348,-17.18L22.348,-14.133L19.055,-14.133ZM19.055,0L19.055,-12.445L22.348,-12.445L22.348,0L19.055,0Z" style="fill:white;fill-rule:nonzero;"/>
            <path d="M28.875,0L25.582,0L25.582,-12.445L28.641,-12.445L28.641,-10.676C29.164,-11.512 29.635,-12.063 30.053,-12.328C30.471,-12.594 30.945,-12.727 31.477,-12.727C32.227,-12.727 32.949,-12.52 33.645,-12.105L32.625,-9.234C32.07,-9.594 31.555,-9.773 31.078,-9.773C30.617,-9.773 30.227,-9.646 29.906,-9.393C29.586,-9.139 29.334,-8.68 29.15,-8.016C28.967,-7.352 28.875,-5.961 28.875,-3.844L28.875,0Z" style="fill:white;fill-rule:nonzero;"/>
            <path d="M45.914,-8.766L42.668,-8.18C42.559,-8.828 42.311,-9.316 41.924,-9.645C41.537,-9.973 41.035,-10.137 40.418,-10.137C39.598,-10.137 38.943,-9.854 38.455,-9.287C37.967,-8.721 37.723,-7.773 37.723,-6.445C37.723,-4.969 37.971,-3.926 38.467,-3.316C38.963,-2.707 39.629,-2.402 40.465,-2.402C41.09,-2.402 41.602,-2.58 42,-2.936C42.398,-3.291 42.68,-3.902 42.844,-4.77L46.078,-4.219C45.742,-2.734 45.098,-1.613 44.145,-0.855C43.191,-0.098 41.914,0.281 40.313,0.281C38.492,0.281 37.041,-0.293 35.959,-1.441C34.877,-2.59 34.336,-4.18 34.336,-6.211C34.336,-8.266 34.879,-9.865 35.965,-11.01C37.051,-12.154 38.52,-12.727 40.371,-12.727C41.887,-12.727 43.092,-12.4 43.986,-11.748C44.881,-11.096 45.523,-10.102 45.914,-8.766Z" style="fill:white;fill-rule:nonzero;"/>
            <rect x="48.41" y="-17.18" width="3.293" height="17.18" style="fill:white;fill-rule:nonzero;"/>
            <path d="M62.285,-3.961L65.566,-3.41C65.145,-2.207 64.479,-1.291 63.568,-0.662C62.658,-0.033 61.52,0.281 60.152,0.281C57.988,0.281 56.387,-0.426 55.348,-1.84C54.527,-2.973 54.117,-4.402 54.117,-6.129C54.117,-8.191 54.656,-9.807 55.734,-10.975C56.813,-12.143 58.176,-12.727 59.824,-12.727C61.676,-12.727 63.137,-12.115 64.207,-10.893C65.277,-9.67 65.789,-7.797 65.742,-5.273L57.492,-5.273C57.516,-4.297 57.781,-3.537 58.289,-2.994C58.797,-2.451 59.43,-2.18 60.188,-2.18C60.703,-2.18 61.137,-2.32 61.488,-2.602C61.84,-2.883 62.105,-3.336 62.285,-3.961ZM62.473,-7.289C62.449,-8.242 62.203,-8.967 61.734,-9.463C61.266,-9.959 60.695,-10.207 60.023,-10.207C59.305,-10.207 58.711,-9.945 58.242,-9.422C57.773,-8.898 57.543,-8.188 57.551,-7.289L62.473,-7.289Z" style="fill:white;fill-rule:nonzero;"/>
        </g>
        <g transform="matrix(1,0,0,1,147,119)">
            <path d="M1.746,0L1.746,-17.18L7.313,-17.18C9.422,-17.18 10.797,-17.094 11.438,-16.922C12.422,-16.664 13.246,-16.104 13.91,-15.24C14.574,-14.377 14.906,-13.262 14.906,-11.895C14.906,-10.84 14.715,-9.953 14.332,-9.234C13.949,-8.516 13.463,-7.951 12.873,-7.541C12.283,-7.131 11.684,-6.859 11.074,-6.727C10.246,-6.563 9.047,-6.48 7.477,-6.48L5.215,-6.48L5.215,0L1.746,0ZM5.215,-14.273L5.215,-9.398L7.113,-9.398C8.48,-9.398 9.395,-9.488 9.855,-9.668C10.316,-9.848 10.678,-10.129 10.939,-10.512C11.201,-10.895 11.332,-11.34 11.332,-11.848C11.332,-12.473 11.148,-12.988 10.781,-13.395C10.414,-13.801 9.949,-14.055 9.387,-14.156C8.973,-14.234 8.141,-14.273 6.891,-14.273L5.215,-14.273Z" style="fill:white;"/>
            <path d="M20.883,0L17.59,0L17.59,-12.445L20.648,-12.445L20.648,-10.676C21.172,-11.512 21.643,-12.063 22.061,-12.328C22.479,-12.594 22.953,-12.727 23.484,-12.727C24.234,-12.727 24.957,-12.52 25.652,-12.105L24.633,-9.234C24.078,-9.594 23.563,-9.773 23.086,-9.773C22.625,-9.773 22.234,-9.646 21.914,-9.393C21.594,-9.139 21.342,-8.68 21.158,-8.016C20.975,-7.352 20.883,-5.961 20.883,-3.844L20.883,0Z" style="fill:white;"/>
            <path d="M26.309,-6.398C26.309,-7.492 26.578,-8.551 27.117,-9.574C27.656,-10.598 28.42,-11.379 29.408,-11.918C30.396,-12.457 31.5,-12.727 32.719,-12.727C34.602,-12.727 36.145,-12.115 37.348,-10.893C38.551,-9.67 39.152,-8.125 39.152,-6.258C39.152,-4.375 38.545,-2.814 37.33,-1.576C36.115,-0.338 34.586,0.281 32.742,0.281C31.602,0.281 30.514,0.023 29.479,-0.492C28.443,-1.008 27.656,-1.764 27.117,-2.76C26.578,-3.756 26.309,-4.969 26.309,-6.398ZM29.684,-6.223C29.684,-4.988 29.977,-4.043 30.563,-3.387C31.148,-2.73 31.871,-2.402 32.73,-2.402C33.59,-2.402 34.311,-2.73 34.893,-3.387C35.475,-4.043 35.766,-4.996 35.766,-6.246C35.766,-7.465 35.475,-8.402 34.893,-9.059C34.311,-9.715 33.59,-10.043 32.73,-10.043C31.871,-10.043 31.148,-9.715 30.563,-9.059C29.977,-8.402 29.684,-7.457 29.684,-6.223Z" style="fill:white;"/>
            <path d="M53.145,0L50.086,0L50.086,-1.828C49.578,-1.117 48.979,-0.588 48.287,-0.24C47.596,0.107 46.898,0.281 46.195,0.281C44.766,0.281 43.541,-0.295 42.521,-1.447C41.502,-2.6 40.992,-4.207 40.992,-6.27C40.992,-8.379 41.488,-9.982 42.48,-11.08C43.473,-12.178 44.727,-12.727 46.242,-12.727C47.633,-12.727 48.836,-12.148 49.852,-10.992L49.852,-17.18L53.145,-17.18L53.145,0ZM44.355,-6.492C44.355,-5.164 44.539,-4.203 44.906,-3.609C45.438,-2.75 46.18,-2.32 47.133,-2.32C47.891,-2.32 48.535,-2.643 49.066,-3.287C49.598,-3.932 49.863,-4.895 49.863,-6.176C49.863,-7.605 49.605,-8.635 49.09,-9.264C48.574,-9.893 47.914,-10.207 47.109,-10.207C46.328,-10.207 45.674,-9.896 45.146,-9.275C44.619,-8.654 44.355,-7.727 44.355,-6.492Z" style="fill:white;"/>
            <path d="M64.582,0L64.582,-1.863C64.129,-1.199 63.533,-0.676 62.795,-0.293C62.057,0.09 61.277,0.281 60.457,0.281C59.621,0.281 58.871,0.098 58.207,-0.27C57.543,-0.637 57.063,-1.152 56.766,-1.816C56.469,-2.48 56.32,-3.398 56.32,-4.57L56.32,-12.445L59.613,-12.445L59.613,-6.727C59.613,-4.977 59.674,-3.904 59.795,-3.51C59.916,-3.115 60.137,-2.803 60.457,-2.572C60.777,-2.342 61.184,-2.227 61.676,-2.227C62.238,-2.227 62.742,-2.381 63.188,-2.689C63.633,-2.998 63.938,-3.381 64.102,-3.838C64.266,-4.295 64.348,-5.414 64.348,-7.195L64.348,-12.445L67.641,-12.445L67.641,0L64.582,0Z" style="fill:white;"/>
            <path d="M81.902,-8.766L78.656,-8.18C78.547,-8.828 78.299,-9.316 77.912,-9.645C77.525,-9.973 77.023,-10.137 76.406,-10.137C75.586,-10.137 74.932,-9.854 74.443,-9.287C73.955,-8.721 73.711,-7.773 73.711,-6.445C73.711,-4.969 73.959,-3.926 74.455,-3.316C74.951,-2.707 75.617,-2.402 76.453,-2.402C77.078,-2.402 77.59,-2.58 77.988,-2.936C78.387,-3.291 78.668,-3.902 78.832,-4.77L82.066,-4.219C81.73,-2.734 81.086,-1.613 80.133,-0.855C79.18,-0.098 77.902,0.281 76.301,0.281C74.48,0.281 73.029,-0.293 71.947,-1.441C70.865,-2.59 70.324,-4.18 70.324,-6.211C70.324,-8.266 70.867,-9.865 71.953,-11.01C73.039,-12.154 74.508,-12.727 76.359,-12.727C77.875,-12.727 79.08,-12.4 79.975,-11.748C80.869,-11.096 81.512,-10.102 81.902,-8.766Z" style="fill:white;"/>
            <path d="M90.105,-12.445L90.105,-9.82L87.855,-9.82L87.855,-4.805C87.855,-3.789 87.877,-3.197 87.92,-3.029C87.963,-2.861 88.061,-2.723 88.213,-2.613C88.365,-2.504 88.551,-2.449 88.77,-2.449C89.074,-2.449 89.516,-2.555 90.094,-2.766L90.375,-0.211C89.609,0.117 88.742,0.281 87.773,0.281C87.18,0.281 86.645,0.182 86.168,-0.018C85.691,-0.217 85.342,-0.475 85.119,-0.791C84.896,-1.107 84.742,-1.535 84.656,-2.074C84.586,-2.457 84.551,-3.23 84.551,-4.395L84.551,-9.82L83.039,-9.82L83.039,-12.445L84.551,-12.445L84.551,-14.918L87.855,-16.84L87.855,-12.445L90.105,-12.445Z" style="fill:white;"/>
            <path d="M91.23,-3.551L94.535,-4.055C94.676,-3.414 94.961,-2.928 95.391,-2.596C95.82,-2.264 96.422,-2.098 97.195,-2.098C98.047,-2.098 98.688,-2.254 99.117,-2.566C99.406,-2.785 99.551,-3.078 99.551,-3.445C99.551,-3.695 99.473,-3.902 99.316,-4.066C99.152,-4.223 98.785,-4.367 98.215,-4.5C95.559,-5.086 93.875,-5.621 93.164,-6.105C92.18,-6.777 91.688,-7.711 91.688,-8.906C91.688,-9.984 92.113,-10.891 92.965,-11.625C93.816,-12.359 95.137,-12.727 96.926,-12.727C98.629,-12.727 99.895,-12.449 100.723,-11.895C101.551,-11.34 102.121,-10.52 102.434,-9.434L99.328,-8.859C99.195,-9.344 98.943,-9.715 98.572,-9.973C98.201,-10.23 97.672,-10.359 96.984,-10.359C96.117,-10.359 95.496,-10.238 95.121,-9.996C94.871,-9.824 94.746,-9.602 94.746,-9.328C94.746,-9.094 94.855,-8.895 95.074,-8.73C95.371,-8.512 96.396,-8.203 98.15,-7.805C99.904,-7.406 101.129,-6.918 101.824,-6.34C102.512,-5.754 102.855,-4.938 102.855,-3.891C102.855,-2.75 102.379,-1.77 101.426,-0.949C100.473,-0.129 99.063,0.281 97.195,0.281C95.5,0.281 94.158,-0.063 93.17,-0.75C92.182,-1.438 91.535,-2.371 91.23,-3.551Z" style="fill:white;"/>
        </g>
        <g transform="matrix(1,0,0,1,70,67)">
            <circle cx="29" cy="29" r="24.5" style="fill:none;stroke:white;stroke-width:9px;"/>
        </g>
    </g>
</svg>
